<?xml version="1.0" encoding="utf-8"?>
<!-- Generator: Adobe Illustrator 12.0.0, SVG Export Plug-In . SVG Version: 6.00 Build 51448)  -->
<!DOCTYPE svg PUBLIC "-//W3C//DTD SVG 1.1//EN" "http://www.w3.org/Graphics/SVG/1.1/DTD/svg11.dtd" [
	<!ENTITY ns_svg "http://www.w3.org/2000/svg">
	<!ENTITY ns_xlink "http://www.w3.org/1999/xlink">
]>
<svg  version="1.1" id="Layer_1" xmlns="&ns_svg;" xmlns:xlink="&ns_xlink;" width="230.61" height="136.174"
	 viewBox="0 0 230.61 136.174" overflow="visible" enable-background="new 0 0 230.61 136.174" xml:space="preserve">
<path fill="none" stroke="#750404" stroke-width="4" d="M63.457,58.535c0,5.186-4.204,9.39-9.39,9.39H20.389
	c-5.186,0-9.39-4.204-9.39-9.39l0,0c0-5.186,4.204-9.39,9.39-9.39h33.678C59.253,49.146,63.457,53.35,63.457,58.535L63.457,58.535z"
	/>
<line fill="none" stroke="#750404" stroke-width="4" x1="21.242" y1="68.391" x2="18.604" y2="125.349"/>
<line fill="none" stroke="#750404" stroke-width="4" x1="27.45" y1="68.235" x2="28.537" y2="125.039"/>
<line fill="none" stroke="#750404" stroke-width="4" x1="48.558" y1="68.235" x2="42.815" y2="125.349"/>
<polyline fill="none" stroke="#750404" stroke-width="4" points="56.007,68.235 70.286,93.533 32.261,104.708 "/>
<path fill="none" stroke="#750404" stroke-width="4" d="M78.513,18.009c0,3.129-2.536,5.665-5.665,5.665H52.53
	c-3.128,0-5.665-2.536-5.665-5.665l0,0c0-3.128,2.536-5.665,5.665-5.665h20.318C75.977,12.344,78.513,14.88,78.513,18.009
	L78.513,18.009z"/>
<line fill="none" stroke="#750404" stroke-width="4" x1="54.455" y1="24.159" x2="52.127" y2="48.835"/>
<path fill="none" stroke="#750404" stroke-width="4" d="M87.735,121.299c0,6.627-5.373,12-12,12H14c-6.627,0-12-5.373-12-12V14
	C2,7.373,7.373,2,14,2h61.735c6.627,0,12,5.373,12,12V121.299z"/>
<g>
	<path fill="#750404" d="M94.422,135.299V97.924h5.688v5.715c1.456-2.658,2.801-4.41,4.034-5.257s2.591-1.271,4.071-1.271
		c2.138,0,4.311,0.674,6.52,2.02L112.53,105c-1.549-0.883-3.098-1.325-4.646-1.325c-1.385,0-2.629,0.416-3.732,1.248
		s-1.89,1.985-2.359,3.461c-0.705,2.249-1.057,4.709-1.057,7.379v19.537H94.422z"/>
	<path fill="#750404" d="M142.961,135.299v-5.505c-2.908,4.212-6.86,6.317-11.855,6.317c-2.205,0-4.263-0.423-6.174-1.266
		c-1.912-0.844-3.331-1.905-4.257-3.183s-1.577-2.842-1.952-4.694c-0.258-1.242-0.387-3.211-0.387-5.907V97.924h6.313v20.72
		c0,3.307,0.129,5.535,0.387,6.684c0.398,1.665,1.243,2.973,2.533,3.922c1.289,0.95,2.884,1.425,4.784,1.425
		c1.899,0,3.682-0.486,5.348-1.46c1.665-0.973,2.844-2.298,3.535-3.975s1.038-4.11,1.038-7.3V97.924h6.313v37.375H142.961z"/>
	<path fill="#750404" d="M158.504,135.299V97.924h5.688v5.309c2.746-4.08,6.714-6.121,11.903-6.121c2.254,0,4.325,0.405,6.216,1.214
		c1.89,0.809,3.304,1.869,4.243,3.182s1.597,2.872,1.973,4.677c0.234,1.172,0.353,3.224,0.353,6.153v22.962h-6.313v-22.705
		c0-2.577-0.247-4.505-0.741-5.782s-1.371-2.296-2.629-3.058c-1.259-0.762-2.735-1.143-4.429-1.143c-2.705,0-5.04,0.855-7.005,2.566
		s-2.946,4.956-2.946,9.735v20.386H158.504z"/>
	<path fill="#750404" d="M196.797,121.674l6.313-0.875c0.73,3.586,1.968,6.17,3.712,7.752s3.888,2.373,6.43,2.373
		c3.012,0,5.544-1.03,7.595-3.092c2.051-2.061,3.076-4.614,3.076-7.66c0-2.904-0.954-5.299-2.862-7.185s-4.335-2.829-7.279-2.829
		c-1.201,0-2.697,0.234-4.487,0.703l0.707-5.563c0.424,0.047,0.765,0.07,1.022,0.07c2.698,0,5.127-0.701,7.286-2.105
		c2.158-1.403,3.238-3.567,3.238-6.492c0-2.315-0.788-4.233-2.363-5.754c-1.576-1.521-3.61-2.281-6.103-2.281
		c-2.469,0-4.526,0.776-6.173,2.328c-1.646,1.553-2.704,3.881-3.174,6.984l-6.313-1.125c0.774-4.247,2.534-7.538,5.28-9.873
		c2.745-2.334,6.159-3.502,10.243-3.502c2.816,0,5.409,0.603,7.779,1.808s4.183,2.848,5.438,4.93s1.884,4.293,1.884,6.633
		c0,2.223-0.598,4.246-1.793,6.07c-1.195,1.825-2.965,3.275-5.309,4.352c3.047,0.703,5.419,2.163,7.117,4.378
		c1.697,2.215,2.547,4.987,2.547,8.315c0,4.501-1.645,8.316-4.932,11.445c-3.287,3.13-7.443,4.694-12.468,4.694
		c-4.532,0-8.295-1.346-11.289-4.037S197.219,125.958,196.797,121.674z"/>
</g>
</svg>
