<?xml version="1.0" encoding="utf-8"?>
<!-- Generator: Adobe Illustrator 12.0.0, SVG Export Plug-In . SVG Version: 6.00 Build 51448)  -->
<!DOCTYPE svg PUBLIC "-//W3C//DTD SVG 1.1//EN" "http://www.w3.org/Graphics/SVG/1.1/DTD/svg11.dtd" [
	<!ENTITY ns_svg "http://www.w3.org/2000/svg">
	<!ENTITY ns_xlink "http://www.w3.org/1999/xlink">
]>
<svg  version="1.1" id="Layer_1" xmlns="&ns_svg;" xmlns:xlink="&ns_xlink;" width="473.24" height="341.382"
	 viewBox="0 0 473.24 341.382" overflow="visible" enable-background="new 0 0 473.24 341.382" xml:space="preserve">
<path fill="none" stroke="#000000" d="M303,262.454c-2.353-45.198,29.754-98.868-6.765-136.589
	c-15.69-16.207-31.916-32.01-47.846-47.998c-8.978-9.011-21.866-17.69-22.556-31.119c-0.776-15.111,26.558-52.803,43.624-38.465
	c-10.768,2.805-25.294-0.916-36.187-2.083c-11.958-1.281-24.886-7.28-36.868-5.304c-2.593,15.953-2.326,31.146-6.717,46.983
	c-6.154,22.19-7.59,43.935-10.689,66.614c-2.623,19.194-32.349,38.988-51.997,32.961"/>
<path fill="none" stroke="#000000" d="M225,104.454c-3.035,23.355-17.659,42.52-17.063,67.76
	c0.286,12.067,11.995,24.278,10.063,35.24"/>
<path fill="none" stroke="#000000" d="M279,33.454c-8.001-5.196-10.935,0.041-12.892,7.374
	c-7.468,27.986,22.531,37.332,40.78,48.915c14.425,9.156,40.616,21.745,51.5,35.541c7.967,10.099,3.612,31.832,3.612,44.249
	c0,41.429-5.255,81.43,24.662,114.236c13.196,14.47,26.351,30.088,41.925,42.103c12.12,9.349,27.443,20.872,44.413,11.583"/>
<path fill="none" stroke="#000000" d="M283,12.454c13.989,10.996,32.458,27.877,52,27"/>
<path fill="none" stroke="#000000" d="M186,6.454c-4.864,1.779-8.174,6.976-12.679,10.209c-13.725,9.853-30.343,11.207-45.43,17.52
	C106.51,43.13,87.88,63.121,84.777,86.141c-3.513,26.07-16.781,51.438-41.063,64.312C30.13,157.655,14.888,155.454,0,155.454"/>
</svg>
